<?xml version="1.0" encoding="UTF-8" standalone="no"?>
<!DOCTYPE svg PUBLIC "-//W3C//DTD SVG 1.1//EN" "http://www.w3.org/Graphics/SVG/1.1/DTD/svg11.dtd">
<svg width="150.00" height="150.00" viewBox="0.00 0.00 150.00 150.00" xmlns="http://www.w3.org/2000/svg" xmlns:xlink="http://www.w3.org/1999/xlink">
<g stroke-linecap="round" id="Layer_1">
<path d="M93.14,0.00 L79.03,30.20" fill="none" stroke="rgb(255, 255, 255)" stroke-width="5.00" stroke-opacity="1.00" stroke-linejoin="round"/>
<path d="M78.74,30.20 L29.35,31.05" fill="none" stroke="rgb(255, 255, 255)" stroke-width="5.00" stroke-opacity="1.00" stroke-linejoin="round"/>
<path d="M29.35,31.05 L29.35,67.74" fill="none" stroke="rgb(255, 255, 255)" stroke-width="5.00" stroke-opacity="1.00" stroke-linejoin="round"/>
<path d="M29.35,66.89 L60.12,67.17" fill="none" stroke="rgb(255, 255, 255)" stroke-width="5.00" stroke-opacity="1.00" stroke-linejoin="round"/>
<path d="M60.12,67.17 L30.20,127.29" fill="none" stroke="rgb(255, 255, 255)" stroke-width="5.00" stroke-opacity="1.00" stroke-linejoin="round"/>
<path d="M29.35,126.72 L28.79,150.15" fill="none" stroke="rgb(255, 255, 255)" stroke-width="5.00" stroke-opacity="1.00" stroke-linejoin="round"/>
<path d="M28.79,148.17 L57.29,148.17" fill="none" stroke="rgb(255, 255, 255)" stroke-width="5.00" stroke-opacity="1.00" stroke-linejoin="round"/>
<path d="M57.29,148.46 L72.53,117.69" fill="none" stroke="rgb(255, 255, 255)" stroke-width="5.00" stroke-opacity="1.00" stroke-linejoin="round"/>
<path d="M72.25,117.98 L118.82,118.54" fill="none" stroke="rgb(255, 255, 255)" stroke-width="5.00" stroke-opacity="1.00" stroke-linejoin="round"/>
<path d="M118.82,118.82 L119.10,83.82" fill="none" stroke="rgb(255, 255, 255)" stroke-width="5.00" stroke-opacity="1.00" stroke-linejoin="round"/>
<path d="M118.82,84.39 L90.32,83.82" fill="none" stroke="rgb(255, 255, 255)" stroke-width="5.00" stroke-opacity="1.00" stroke-linejoin="round"/>
<path d="M118.54,25.68 L90.03,83.26" fill="none" stroke="rgb(255, 255, 255)" stroke-width="5.00" stroke-opacity="1.00" stroke-linejoin="round"/>
<path d="M118.54,26.25 L119.39,1.13" fill="none" stroke="rgb(255, 255, 255)" stroke-width="5.00" stroke-opacity="1.00" stroke-linejoin="round"/>
<path d="M118.54,1.13 L93.98,1.69" fill="none" stroke="rgb(255, 255, 255)" stroke-width="5.00" stroke-opacity="1.00" stroke-linejoin="round"/>
<path d="M104.43,3.67 L39.51,135.19" fill="none" stroke="rgb(255, 255, 255)" stroke-width="25.30" stroke-opacity="1.00" stroke-linejoin="round"/>
<path d="M44.03,146.48 L108.94,20.04" fill="none" stroke="rgb(255, 255, 255)" stroke-width="25.30" stroke-opacity="1.00" stroke-linejoin="round"/>
<path d="M107.81,95.96 L76.77,95.40" fill="none" stroke="rgb(255, 255, 255)" stroke-width="25.30" stroke-opacity="1.00" stroke-linejoin="round"/>
<path d="M110.07,109.23 L69.99,106.97" fill="none" stroke="rgb(255, 255, 255)" stroke-width="25.30" stroke-opacity="1.00" stroke-linejoin="round"/>
<path d="M40.36,53.06 L75.64,52.78" fill="none" stroke="rgb(255, 255, 255)" stroke-width="25.30" stroke-opacity="1.00" stroke-linejoin="round"/>
<path d="M40.92,41.21 L85.52,42.90" fill="none" stroke="rgb(255, 255, 255)" stroke-width="25.30" stroke-opacity="1.00" stroke-linejoin="round"/>
<path d="M108.38,9.03 L108.38,13.27" fill="none" stroke="rgb(255, 255, 255)" stroke-width="25.30" stroke-opacity="1.00" stroke-linejoin="round"/>
<path d="M38.95,57.01 L42.62,55.60" fill="none" stroke="rgb(255, 255, 255)" stroke-width="25.30" stroke-opacity="1.00" stroke-linejoin="round"/>
<path d="M38.95,41.49 L42.05,44.59" fill="none" stroke="rgb(255, 255, 255)" stroke-width="25.30" stroke-opacity="1.00" stroke-linejoin="round"/>
<path d="M50.80,56.73 L61.81,56.17" fill="none" stroke="rgb(255, 255, 255)" stroke-width="25.30" stroke-opacity="1.00" stroke-linejoin="round"/>
<path d="M38.67,142.25 L38.67,142.53" fill="none" stroke="rgb(255, 255, 255)" stroke-width="25.30" stroke-opacity="1.00" stroke-linejoin="round"/>
<path d="M114.87,88.90 L110.35,92.01" fill="none" stroke="rgb(255, 255, 255)" stroke-width="12.20" stroke-opacity="1.00" stroke-linejoin="round"/>
</g>
</svg>
